<?xml version="1.0" encoding="utf-8"?>
<!-- Generator: Adobe Illustrator 19.2.0, SVG Export Plug-In . SVG Version: 6.00 Build 0)  -->
<svg version="1.1" id="Camada_1" xmlns="http://www.w3.org/2000/svg" xmlns:xlink="http://www.w3.org/1999/xlink" x="0px" y="0px"
	 width="300px" height="300px" viewBox="0 0 300 300" enable-background="new 0 0 300 300" xml:space="preserve">
<g>
	<path d="M215.2,299.5h-47.1c-6.1,0-11.9-3-15.5-7.9L58.8,161.7c-4.9-6.7-4.9-15.7,0-22.4L152.6,9.4c3.6-5,9.4-7.9,15.5-7.9h47.7
		c7.2,0,13.8,4,17.1,10.5c3.3,6.5,2.7,14.1-1.6,20L146,149.2c-0.6,0.8-0.6,1.8,0,2.6l84.8,117.3c4.2,5.9,4.8,13.5,1.5,19.9
		C229,295.5,222.5,299.5,215.2,299.5z M168.2,18.4c-0.7,0-1.4,0.3-1.8,0.9L72.5,149.1c-0.6,0.8-0.6,1.8,0,2.6l93.9,129.9
		c0.4,0.6,1.1,0.9,1.8,0.9h47.1c1.1,0,1.7-0.7,2-1.2c0.3-0.6,0.5-1.4-0.2-2.3l-84.8-117.3c-4.9-6.7-4.9-15.8,0-22.5l85.4-117.3
		c0.7-0.9,0.5-1.8,0.2-2.3s-0.9-1.2-2-1.2H168.2z"/>
</g>
</svg>
