<?xml version="1.0" encoding="utf-8"?>
<!-- Generator: Adobe Illustrator 19.2.0, SVG Export Plug-In . SVG Version: 6.00 Build 0)  -->
<svg version="1.1" id="Camada_1" xmlns="http://www.w3.org/2000/svg" xmlns:xlink="http://www.w3.org/1999/xlink" x="0px" y="0px"
	 width="300px" height="300px" viewBox="0 0 300 300" enable-background="new 0 0 300 300" xml:space="preserve">
<g>
	<path d="M122.1,299.5H75c-7.2,0-13.8-4-17.1-10.4c-3.3-6.4-2.7-14.1,1.5-19.9l84.8-117.3c0.6-0.8,0.6-1.8,0-2.6L58.8,31.9
		c-4.3-5.9-4.9-13.5-1.6-20S67.1,1.4,74.3,1.4h47.7c6.1,0,11.9,3,15.5,7.9l93.9,129.9c4.9,6.7,4.9,15.7,0,22.4l-93.9,129.9
		C134,296.5,128.2,299.5,122.1,299.5z M74.3,18.4c-1.1,0-1.7,0.7-2,1.2c-0.3,0.6-0.5,1.4,0.2,2.3l85.4,117.3
		c4.9,6.7,4.9,15.8,0,22.5L73.2,279c-0.7,0.9-0.5,1.8-0.2,2.3c0.3,0.6,0.9,1.2,2,1.2h47.1c0.7,0,1.4-0.3,1.8-0.9l93.9-129.9
		c0.6-0.8,0.6-1.8,0-2.6L123.9,19.3c-0.4-0.6-1.1-0.9-1.8-0.9H74.3z"/>
</g>
</svg>
