<?xml version="1.0" encoding="utf-8"?>
<!-- Generator: Adobe Illustrator 19.2.0, SVG Export Plug-In . SVG Version: 6.00 Build 0)  -->
<svg version="1.1" id="Camada_1" xmlns="http://www.w3.org/2000/svg" xmlns:xlink="http://www.w3.org/1999/xlink" x="0px" y="0px"
	 width="300px" height="300px" viewBox="0 0 300 300" enable-background="new 0 0 300 300" xml:space="preserve">
<path d="M265,278H38c-18.2,0-33-14.8-33-33V62c0-18.2,14.8-33,33-33h23.5v18H38c-8.3,0-15,6.7-15,15v183c0,8.3,6.7,15,15,15h227
	c8.3,0,15-6.7,15-15V62c0-8.3-6.7-15-15-15h-24.7V29H265c18.2,0,33,14.8,33,33v183C298,263.2,283.2,278,265,278z"/>
<rect x="111.5" y="29" width="79.2" height="18"/>
<path d="M86.5,71c-8.3,0-15-6.7-15-15V20c0-8.3,6.7-15,15-15s15,6.7,15,15v36C101.5,64.3,94.8,71,86.5,71z"/>
<path d="M215.5,71c-8.3,0-15-6.7-15-15V20c0-8.3,6.7-15,15-15s15,6.7,15,15v36C230.5,64.3,223.8,71,215.5,71z"/>
<path d="M99.3,128.5H83.4H67.5c-1.9,0-3.4-1.5-3.4-3.4V99.5c0-1.9,1.5-3.4,3.4-3.4h31.8c1.9,0,3.4,1.5,3.4,3.4v25.7
	C102.7,127,101.2,128.5,99.3,128.5z"/>
<path d="M167.3,128.5h-15.9h-15.9c-1.9,0-3.4-1.5-3.4-3.4V99.5c0-1.9,1.5-3.4,3.4-3.4h31.8c1.9,0,3.4,1.5,3.4,3.4v25.7
	C170.7,127,169.2,128.5,167.3,128.5z"/>
<path d="M235.4,128.5h-15.9h-15.9c-1.9,0-3.4-1.5-3.4-3.4V99.5c0-1.9,1.5-3.4,3.4-3.4h31.8c1.9,0,3.4,1.5,3.4,3.4v25.7
	C238.7,127,237.2,128.5,235.4,128.5z"/>
<path d="M99.3,177.7H83.4H67.5c-1.9,0-3.4-1.5-3.4-3.4v-25.7c0-1.9,1.5-3.4,3.4-3.4h31.8c1.9,0,3.4,1.5,3.4,3.4v25.7
	C102.7,176.2,101.2,177.7,99.3,177.7z"/>
<path d="M167.3,177.7h-15.9h-15.9c-1.9,0-3.4-1.5-3.4-3.4v-25.7c0-1.9,1.5-3.4,3.4-3.4h31.8c1.9,0,3.4,1.5,3.4,3.4v25.7
	C170.7,176.2,169.2,177.7,167.3,177.7z"/>
<path d="M235.4,177.7h-15.9h-15.9c-1.9,0-3.4-1.5-3.4-3.4v-25.7c0-1.9,1.5-3.4,3.4-3.4h31.8c1.9,0,3.4,1.5,3.4,3.4v25.7
	C238.7,176.2,237.2,177.7,235.4,177.7z"/>
<path d="M99.3,225.7H83.4H67.5c-1.9,0-3.4-1.5-3.4-3.4v-25.7c0-1.9,1.5-3.4,3.4-3.4h31.8c1.9,0,3.4,1.5,3.4,3.4v25.7
	C102.7,224.1,101.2,225.7,99.3,225.7z"/>
<path d="M167.3,225.7h-15.9h-15.9c-1.9,0-3.4-1.5-3.4-3.4v-25.7c0-1.9,1.5-3.4,3.4-3.4h31.8c1.9,0,3.4,1.5,3.4,3.4v25.7
	C170.7,224.1,169.2,225.7,167.3,225.7z"/>
<path d="M236.1,224.9h-15.9h-15.9c-1.9,0-3.4-1.5-3.4-3.4v-25.7c0-1.9,1.5-3.4,3.4-3.4h31.8c1.9,0,3.4,1.5,3.4,3.4v25.7
	C239.5,223.4,238,224.9,236.1,224.9z"/>
</svg>
