<?xml version="1.0" encoding="utf-8"?>
<!-- Generator: Adobe Illustrator 19.2.0, SVG Export Plug-In . SVG Version: 6.00 Build 0)  -->
<svg version="1.1" id="Camada_1" xmlns="http://www.w3.org/2000/svg" xmlns:xlink="http://www.w3.org/1999/xlink" x="0px" y="0px"
	 width="300px" height="300px" viewBox="0 0 300 300" enable-background="new 0 0 300 300" xml:space="preserve">
<g>
	<path d="M265.5,273.7h-227c-18.2,0-33-14.8-33-33v-143c0-18.2,14.8-33,33-33h61.4v18H38.5c-8.3,0-15,6.7-15,15v143
		c0,8.3,6.7,15,15,15h227c8.3,0,15-6.7,15-15v-143c0-8.3-6.7-15-15-15H203v-18h62.5c18.2,0,33,14.8,33,33v143
		C298.5,258.9,283.7,273.7,265.5,273.7z"/>
	<path d="M100,65H82c0-17,13.3-37,31-37h75.5c18,0,32.5,20,32.5,37h-18c0-8-8.1-19-14.5-19H113C106.9,46,100,56,100,65z"/>
	<path d="M152,249.2c-49.7,0-90.1-40.4-90.1-90.1s40.4-90.1,90.1-90.1s90.1,40.4,90.1,90.1S201.7,249.2,152,249.2z M152,85.1
		c-40.9,0-74.1,33.2-74.1,74.1s33.2,74.1,74.1,74.1s74.1-33.2,74.1-74.1S192.9,85.1,152,85.1z"/>
	<circle cx="152" cy="159.2" r="34.4"/>
</g>
</svg>
