<?xml version="1.0" encoding="utf-8"?>
<!-- Generator: Adobe Illustrator 19.2.0, SVG Export Plug-In . SVG Version: 6.00 Build 0)  -->
<svg version="1.1" id="Camada_1" xmlns="http://www.w3.org/2000/svg" xmlns:xlink="http://www.w3.org/1999/xlink" x="0px" y="0px"
	 width="300px" height="300px" viewBox="0 0 300 300" enable-background="new 0 0 300 300" xml:space="preserve">
<path d="M206.4,200H21.7C11.6,200,2,190.7,2,180.9V75.3c0-9.5,8.5-17.5,18.5-17.6l240.4-12.3L206.4,200z M21.8,182h171.8L235,64.9
	L21,76h-0.2c-0.3,0-0.6-0.2-0.8-0.1v104.5C20.3,181.1,21.3,181.8,21.8,182z"/>
<rect x="48.5" y="211" width="113.5" height="18"/>
<path d="M49.2,294c-22.9,0-41.6-18.6-41.6-41.6c0-22.9,18.6-41.6,41.6-41.6s41.6,18.6,41.6,41.6C90.8,275.4,72.1,294,49.2,294z
	 M49.2,228.9c-13,0-23.6,10.6-23.6,23.6S36.2,276,49.2,276s23.6-10.6,23.6-23.6S62.2,228.9,49.2,228.9z"/>
<path d="M163.3,294c-22.9,0-41.6-18.6-41.6-41.6c0-22.9,18.6-41.6,41.6-41.6c22.9,0,41.6,18.6,41.6,41.6
	C204.9,275.4,186.2,294,163.3,294z M163.3,228.9c-13,0-23.6,10.6-23.6,23.6s10.6,23.6,23.6,23.6s23.6-10.6,23.6-23.6
	S176.3,228.9,163.3,228.9z"/>
<polygon points="254.7,61.4 238.1,54.5 258.2,6 300,6 300,24 270.2,24 "/>
</svg>
