<?xml version="1.0" encoding="utf-8"?>
<!-- Generator: Adobe Illustrator 19.2.0, SVG Export Plug-In . SVG Version: 6.00 Build 0)  -->
<svg version="1.1" id="Camada_1" xmlns="http://www.w3.org/2000/svg" xmlns:xlink="http://www.w3.org/1999/xlink" x="0px" y="0px"
	 width="300px" height="300px" viewBox="0 0 300 300" enable-background="new 0 0 300 300" xml:space="preserve">
<path d="M263.5,215.8h-227c-17.6,0-32-14.4-32-32v-143c0-17.6,14.4-32,32-32h227c17.6,0,32,14.4,32,32v143
	C295.5,201.5,281.1,215.8,263.5,215.8z M36.5,24.8c-8.8,0-16,7.2-16,16v143c0,8.8,7.2,16,16,16h227c8.8,0,16-7.2,16-16v-143
	c0-8.8-7.2-16-16-16H36.5z"/>
<path d="M67.8,286.6l0.1-13.7c0-0.4-0.2-43.9-23.2-58.3L21,199.8h107.5l0.9,7c5.4,41.9-47.4,71.9-49.6,73.1L67.8,286.6z M68.2,215.8
	c9.4,13.7,13.1,30.9,14.7,42.9c11.8-8.7,29.1-24.5,30.8-42.9H68.2z"/>
</svg>
