<?xml version="1.0" encoding="utf-8"?>
<svg version="1.1" id="Camada_1" xmlns="http://www.w3.org/2000/svg" xmlns:xlink="http://www.w3.org/1999/xlink" x="0px" y="0px"
	 width="300px" height="300px" viewBox="0 0 300 300" enable-background="new 0 0 300 300" xml:space="preserve">
<path d="M265,212H151.5H38c-13.2,0-24-10.8-24-24V45c0-13.2,10.8-24,24-24h227c13.2,0,24,10.8,24,24v143
	C289,201.2,278.2,212,265,212z"/>
<path fill="none" stroke="#000000" stroke-width="18" stroke-miterlimit="10" d="M1330,239l138,98V174c0-13.2-10.8-24-24-24h-227
	c-13.2,0-24,10.8-24,24v162L1330,239z"/>
<path d="M98,224H45.4c27.2,17,27,65.1,27,65.1S102.8,261,98,224z"/>
</svg>
