<?xml version="1.0" encoding="utf-8"?>
<!-- Generator: Adobe Illustrator 19.2.0, SVG Export Plug-In . SVG Version: 6.00 Build 0)  -->
<svg version="1.1" id="Camada_1" xmlns="http://www.w3.org/2000/svg" xmlns:xlink="http://www.w3.org/1999/xlink" x="0px" y="0px"
	 width="300px" height="300px" viewBox="0 0 300 300" enable-background="new 0 0 300 300" xml:space="preserve">
<path d="M12.8,103.7c0.6,0,1.1,0,1.5,0c8.4,0,16.7,0,25.1,0c1.1,0,1.7,0.3,2.3,1.2c21,28.4,42,56.7,63,85
	c11.5,15.5,22.9,30.9,34.4,46.4c0.2,0.2,0.3,0.4,0.6,0.8c1.2-2.3,2.4-4.5,3.6-6.8c19.9-37.7,39.9-75.5,59.8-113.2
	C223,79.4,242.9,41.6,262.8,3.9c0.5-0.9,1-1.3,2-1.3c8.1,0.1,16.2,0,24.3,0c0.4,0,0.8,0,1.5,0c-0.5,1.1-0.9,2-1.3,2.9
	C266.2,56.3,243,107,219.8,157.7c-16.8,36.8-33.6,73.6-50.4,110.3c-4.5,9.9-9.1,19.8-13.5,29.7c-0.4,0.9-0.9,1.2-1.9,1.2
	c-10.6,0-21.1,0-31.7,0c-1.1,0-1.7-0.3-2.2-1.3c-26.6-48.1-53.2-96.3-79.9-144.4c-8.9-16.1-17.8-32.2-26.8-48.4
	C13.2,104.6,13.1,104.3,12.8,103.7z"/>
</svg>
