<?xml version="1.0" encoding="utf-8"?>
<!-- Generator: Adobe Illustrator 19.2.0, SVG Export Plug-In . SVG Version: 6.00 Build 0)  -->
<svg version="1.1" id="Camada_1" xmlns="http://www.w3.org/2000/svg" xmlns:xlink="http://www.w3.org/1999/xlink" x="0px" y="0px"
	 width="300px" height="300px" viewBox="0 0 300 300" enable-background="new 0 0 300 300" xml:space="preserve">
<path d="M150,294C70.7,294,6.2,229.5,6.2,150.2C6.2,70.9,70.7,6.4,150,6.4c79.3,0,143.8,64.5,143.8,143.8
	C293.8,229.5,229.3,294,150,294z M150,24.4c-69.4,0-125.8,56.4-125.8,125.8C24.2,219.6,80.6,276,150,276s125.8-56.4,125.8-125.8
	C275.8,80.9,219.4,24.4,150,24.4z"/>
<path d="M197.2,201.3l-53-44.1c-2.1-1.7-3.2-4.2-3.2-6.9V44.3h18V146l49.8,41.4L197.2,201.3z"/>
</svg>
