<?xml version="1.0" encoding="utf-8"?>
<!-- Generator: Adobe Illustrator 19.2.0, SVG Export Plug-In . SVG Version: 6.00 Build 0)  -->
<svg version="1.1" id="Camada_1" xmlns="http://www.w3.org/2000/svg" xmlns:xlink="http://www.w3.org/1999/xlink" x="0px" y="0px"
	 width="300px" height="300px" viewBox="0 0 300 300" enable-background="new 0 0 300 300" xml:space="preserve">
<path d="M123.6,4.5h139.8c18.2,0,33.1,14.9,33.1,33.1v169.8c0,18.2-14.9,33.1-33.1,33.1H226v-18h37.4c8.3,0,15.1-6.8,15.1-15.1V37.7
	c0-8.3-6.8-15.1-15.1-15.1H123.7c-8.3,0-15.1,6.8-15.1,15.1v6.8h-18v-6.9C90.5,19.4,105.4,4.5,123.6,4.5z"/>
<path d="M37,59h140c18.2,0,33,14.8,33,33v173c0,18.2-14.8,33-33,33H37c-18.2,0-33-14.8-33-33V92C4,73.8,18.8,59,37,59z M177,280
	c8.3,0,15-6.7,15-15V92c0-8.3-6.7-15-15-15H37c-8.3,0-15,6.7-15,15v173c0,8.3,6.7,15,15,15H177z"/>
</svg>
