<?xml version="1.0" encoding="iso-8859-1"?>
<!-- Generator: Adobe Illustrator 19.0.0, SVG Export Plug-In . SVG Version: 6.00 Build 0)  -->
<svg version="1.1" baseProfile="tiny" id="Layer_1" xmlns="http://www.w3.org/2000/svg" xmlns:xlink="http://www.w3.org/1999/xlink"
	 x="0px" y="0px" viewBox="0 0 300 300" xml:space="preserve">
<g id="XMLID_1586_">
	<path id="XMLID_1587_" d="M163.959,273.5h-20.757v-28.544c-19.209-2.111-35.839-9.499-49.841-22.188l13.815-20.452
		c6.544,5.371,13.369,9.781,20.476,13.252c7.107,3.448,14.683,5.183,22.774,5.183c19.585,0,29.389-8.842,29.389-26.527
		c0-8.256-2.697-14.87-8.068-19.866c-5.395-4.996-11.962-9.429-19.749-13.275c-7.787-3.823-15.621-7.951-23.478-12.384
		c-7.881-4.409-14.518-9.992-19.889-16.723c-5.395-6.708-8.068-15.55-8.068-26.504c0-13.252,3.893-24.299,11.657-33.141
		c7.787-8.842,18.107-14.425,30.983-16.723V26.5h20.757v28.826c9.218,0.962,17.098,3.495,23.642,7.623
		c6.52,4.151,12.478,8.983,17.872,14.565L189.9,95.081c-5.371-4.996-10.578-8.866-15.574-11.657s-11.047-4.175-18.154-4.175
		c-8.256,0-14.729,2.205-19.444,6.614c-4.714,4.433-7.06,10.484-7.06,18.154c0,7.505,2.627,13.463,7.928,17.872
		c5.277,4.433,11.845,8.467,19.725,12.103c7.881,3.659,15.761,7.693,23.642,12.103c7.881,4.433,14.448,10.25,19.749,17.45
		c5.277,7.201,7.928,16.77,7.928,28.661c0,13.651-3.94,25.143-11.821,34.455s-18.834,15.128-32.86,17.427V273.5z"/>
</g>
</svg>
