<?xml version="1.0" encoding="iso-8859-1"?>
<!-- Generator: Adobe Illustrator 19.2.0, SVG Export Plug-In . SVG Version: 6.00 Build 0)  -->
<svg version="1.1" id="Camada_1" xmlns="http://www.w3.org/2000/svg" xmlns:xlink="http://www.w3.org/1999/xlink" x="0px" y="0px"
	 width="300px" height="300px" viewBox="0 0 300 300" style="enable-background:new 0 0 300 300;" xml:space="preserve">
<path d="M140.312,262.511c-20.085-0.348-39.023-4.29-56.489-14.547c2.303-6.436,4.568-12.762,6.846-19.129
	c2.729,1.423,5.323,2.878,8.002,4.155c15.279,7.282,31.37,10.862,48.305,10.038c11.043-0.537,21.31-3.654,29.938-10.879
	c9.993-8.368,14.211-19.236,13.241-32.154c-0.903-12.018-6.933-21.172-16.139-28.505c-7.858-6.258-16.76-10.668-25.986-14.444
	c-9.129-3.736-18.249-7.473-26.883-12.285c-7.58-4.224-14.718-9.047-20.778-15.333c-8.446-8.76-13.139-19.195-13.656-31.364
	c-0.953-22.422,8.223-39.54,27.358-51.24c8.101-4.954,17.02-7.744,26.352-9.273c2.476-0.406,2.481-0.375,2.481-2.83
	c0-11.064,0-22.127,0-33.191c0-0.484,0-0.968,0-1.533c5.653,0,11.205,0,16.893,0c0,11.909,0,23.848,0,36.004
	c16.835,0.31,32.929,3.291,47.859,11.479c-2.374,6.27-4.716,12.457-7.105,18.768c-0.705-0.36-1.347-0.685-1.986-1.014
	c-13.009-6.686-26.844-10.003-41.453-10.257c-7.643-0.133-15.146,0.596-22.297,3.462c-11.662,4.674-19.369,12.916-21.656,25.445
	c-2.422,13.266,1.797,24.282,12.284,32.841c6.525,5.325,13.883,9.264,21.495,12.729c7.665,3.49,15.47,6.672,23.137,10.16
	c9.196,4.183,17.917,9.191,25.692,15.718c10.78,9.049,17.84,20.286,19.975,34.344c3.033,19.977-1.742,37.655-15.985,52.312
	c-8.911,9.169-19.957,14.701-32.271,17.79c-2.853,0.716-5.768,1.182-8.655,1.765c-0.358,0.072-0.713,0.158-1.16,0.257
	c0,12.727,0,25.418,0,38.197c-5.812,0-11.521,0-17.358,0C140.312,287.532,140.312,275.091,140.312,262.511z"/>
</svg>
