<?xml version="1.0" encoding="utf-8"?>
<!-- Generator: Adobe Illustrator 19.2.0, SVG Export Plug-In . SVG Version: 6.00 Build 0)  -->
<svg version="1.1" id="Camada_1" xmlns="http://www.w3.org/2000/svg" xmlns:xlink="http://www.w3.org/1999/xlink" x="0px" y="0px"
	 width="300px" height="300px" viewBox="0 0 300 300" enable-background="new 0 0 300 300" xml:space="preserve">
<g>
	<path d="M279.4,291.8c-4.1,0-8.1-1.3-11.5-3.8h0l-116.5-84.9c-0.6-0.4-1.3-0.4-1.9,0L32.8,287.4c-6,4.3-13.8,4.9-20.4,1.6
		c-6.6-3.4-10.7-10.1-10.7-17.5v-26.9c0-6.3,3-12.2,8.1-15.9l129-93.3c6.9-5,16.1-5,23,0l129,93.3c5.1,3.7,8.1,9.6,8.1,15.9v27.6
		c0,7.4-4.1,14.1-10.7,17.5C285.4,291.1,282.4,291.8,279.4,291.8z M150.3,184.8c4.1,0,8.1,1.3,11.6,3.8l116.5,84.9
		c0.2,0.1,0.8,0.6,1.7,0.1c0.6-0.3,0.9-0.8,0.9-1.5v-27.6c0-0.5-0.3-1-0.7-1.3l-129-93.3c-0.6-0.4-1.3-0.4-1.9,0l-129,93.3
		c-0.4,0.3-0.7,0.8-0.7,1.3v26.9c0,0.7,0.3,1.1,0.9,1.5c0.6,0.3,1.2,0.3,1.7-0.1l116.6-84.3C142.3,186,146.3,184.8,150.3,184.8z
		 M279.4,168.1c-4.1,0-8.1-1.3-11.5-3.8l0,0L151.3,79.4c-0.6-0.4-1.3-0.4-1.9,0L32.8,163.7c-6,4.3-13.8,4.9-20.4,1.6
		c-6.6-3.4-10.7-10.1-10.7-17.5v-26.9c0-6.3,3-12.2,8.1-15.9l129-93.3c6.9-5,16.1-5,23,0l129,93.3c5.1,3.7,8.1,9.6,8.1,15.9v27.6
		c0,7.4-4.1,14.1-10.7,17.5C285.4,167.3,282.4,168.1,279.4,168.1z M150.3,61.1c4.1,0,8.1,1.3,11.6,3.8l116.5,84.9
		c0.5,0.4,1.1,0.4,1.7,0.1c0.9-0.5,0.9-1.2,0.9-1.5v-27.6c0-0.5-0.3-1-0.7-1.3l-129-93.3c-0.6-0.4-1.3-0.4-1.9,0l-129,93.3
		c-0.4,0.3-0.7,0.8-0.7,1.3v26.9c0,0.7,0.3,1.1,0.9,1.5c0.6,0.3,1.2,0.3,1.7-0.1l116.6-84.3C142.3,62.3,146.3,61.1,150.3,61.1z"/>
</g>
</svg>
