<?xml version="1.0" encoding="utf-8"?>
<!-- Generator: Adobe Illustrator 19.2.0, SVG Export Plug-In . SVG Version: 6.00 Build 0)  -->
<svg version="1.1" id="Camada_1" xmlns="http://www.w3.org/2000/svg" xmlns:xlink="http://www.w3.org/1999/xlink" x="0px" y="0px"
	 width="300px" height="300px" viewBox="0 0 300 300" enable-background="new 0 0 300 300" xml:space="preserve">
<g>
	<path d="M179.4,298.5h-27.6c-7.4,0-14.1-4.1-17.5-10.7s-2.7-14.5,1.6-20.5l0,0l84.9-116.5c0.4-0.6,0.4-1.3,0-1.9L136.5,32.3
		c-4.3-6-4.9-13.8-1.6-20.4c3.4-6.6,10.1-10.7,17.5-10.7h26.9c6.3,0,12.2,3,15.9,8.1l93.3,129c5,6.9,5,16.1,0,23l-93.3,129
		C191.6,295.5,185.6,298.5,179.4,298.5z M152.5,19.2c-0.7,0-1.2,0.3-1.5,0.9c-0.3,0.6-0.3,1.2,0.1,1.7l84.3,116.6
		c5,6.9,5,16.2,0,23.1l-84.9,116.5c-0.1,0.2-0.6,0.8-0.1,1.7c0.3,0.6,0.8,0.9,1.5,0.9h27.6c0.5,0,1-0.3,1.3-0.7l93.3-129
		c0.4-0.6,0.4-1.3,0-1.9l-93.3-129c-0.3-0.4-0.8-0.7-1.3-0.7H152.5z M55.6,298.5H28.1c-7.4,0-14.1-4.1-17.5-10.7s-2.7-14.5,1.6-20.5
		l0,0l84.9-116.5c0.4-0.6,0.4-1.3,0-1.9L12.8,32.3c-4.3-6-4.9-13.8-1.6-20.4S21.3,1.2,28.7,1.2h26.9c6.3,0,12.2,3,15.9,8.1l93.3,129
		c5,6.9,5,16.1,0,23l-93.3,129C67.9,295.5,61.9,298.5,55.6,298.5z M28.7,19.2c-0.7,0-1.1,0.3-1.5,0.9c-0.3,0.6-0.3,1.2,0.1,1.7
		l84.3,116.6c5,6.9,5,16.2,0,23.1L26.7,277.9c-0.1,0.2-0.6,0.8-0.1,1.7c0.3,0.6,0.8,0.9,1.5,0.9h27.6c0.5,0,1-0.3,1.3-0.7l93.3-129
		c0.4-0.6,0.4-1.3,0-1.9l-93.3-129c-0.3-0.4-0.8-0.7-1.3-0.7H28.7z"/>
</g>
</svg>
