<?xml version="1.0" encoding="utf-8"?>
<!-- Generator: Adobe Illustrator 19.2.0, SVG Export Plug-In . SVG Version: 6.00 Build 0)  -->
<svg version="1.1" id="Camada_1" xmlns="http://www.w3.org/2000/svg" xmlns:xlink="http://www.w3.org/1999/xlink" x="0px" y="0px"
	 width="300px" height="300px" viewBox="0 0 300 300" enable-background="new 0 0 300 300" xml:space="preserve">
<g>
	<path d="M150.3,291.8c-4,0-8.1-1.2-11.5-3.7l-129-93.3c-5.1-3.7-8.1-9.6-8.1-15.9v-27.6c0-7.4,4.1-14.1,10.7-17.5
		c6.6-3.4,14.5-2.7,20.5,1.6l116.5,84.9c0.6,0.4,1.3,0.4,1.9,0l116.6-84.3c6-4.3,13.8-4.9,20.4-1.6c6.6,3.4,10.7,10.1,10.7,17.5
		v26.9c0,6.3-3,12.2-8.1,15.9l-129,93.3C158.4,290.5,154.4,291.8,150.3,291.8z M21.3,149.7c-0.2,0-0.5,0.1-0.8,0.2
		c-0.6,0.3-0.9,0.8-0.9,1.5v27.6c0,0.5,0.3,1,0.7,1.3l129,93.3c0.6,0.4,1.3,0.4,1.9,0l129-93.3c0.4-0.3,0.7-0.8,0.7-1.3V152
		c0-0.7-0.3-1.2-0.9-1.5c-0.6-0.3-1.2-0.3-1.7,0.1l-116.6,84.3c-6.9,5-16.2,5-23.1,0L22.3,150C22,149.8,21.6,149.7,21.3,149.7z
		 M150.3,168.1c-4,0-8.1-1.2-11.5-3.7L9.8,71.1c-5.1-3.7-8.1-9.6-8.1-15.9V27.6c0-7.4,4.1-14.1,10.7-17.5c6.6-3.4,14.5-2.7,20.5,1.6
		v0l116.5,84.9c0.6,0.4,1.3,0.4,1.9,0l116.6-84.3c6-4.3,13.8-4.9,20.4-1.6c6.6,3.4,10.7,10.1,10.7,17.5v26.9c0,6.3-3,12.2-8.1,15.9
		l-129,93.3C158.4,166.8,154.4,168.1,150.3,168.1z M21.3,25.9c-0.2,0-0.5,0.1-0.8,0.2c-0.6,0.3-0.9,0.8-0.9,1.5v27.6
		c0,0.5,0.3,1,0.7,1.3l129,93.3c0.6,0.4,1.3,0.4,1.9,0l129-93.3c0.4-0.3,0.7-0.8,0.7-1.3V28.3c0-0.7-0.3-1.1-0.9-1.5
		c-0.6-0.3-1.2-0.3-1.7,0.1l-116.6,84.3c-6.9,5-16.2,5-23.1,0L22.3,26.3C22,26,21.6,25.9,21.3,25.9z"/>
</g>
</svg>
