<?xml version="1.0" encoding="utf-8"?>
<!-- Generator: Adobe Illustrator 19.2.0, SVG Export Plug-In . SVG Version: 6.00 Build 0)  -->
<svg version="1.1" id="Camada_1" xmlns="http://www.w3.org/2000/svg" xmlns:xlink="http://www.w3.org/1999/xlink" x="0px" y="0px"
	 width="300px" height="300px" viewBox="0 0 300 300" enable-background="new 0 0 300 300" xml:space="preserve">
<g>
	<path d="M265,274H38c-18.2,0-33-14.8-33-33V58c0-18.2,14.8-33,33-33h227c18.2,0,33,14.8,33,33v183C298,259.2,283.2,274,265,274z
		 M38,43c-8.3,0-15,6.7-15,15v183c0,8.3,6.7,15,15,15h227c8.3,0,15-6.7,15-15V58c0-8.3-6.7-15-15-15H38z"/>
	<path d="M265,274H38c-18.2,0-33-14.8-33-33V60.6L152,165L298,61.6V241C298,259.2,283.2,274,265,274z M23,95.4V241
		c0,8.3,6.7,15,15,15h227c8.3,0,15-6.7,15-15V96.4L152,187L23,95.4z"/>
	<polygon points="17.7,242.9 10.3,236.1 104.3,135.7 151.5,170.5 198.7,135.9 289.7,236.1 282.3,242.9 197.4,149.3 151.5,182.9 
		105.5,149 	"/>
</g>
</svg>
