<?xml version="1.0" encoding="utf-8"?>
<!-- Generator: Adobe Illustrator 19.2.0, SVG Export Plug-In . SVG Version: 6.00 Build 0)  -->
<svg version="1.1" id="Camada_1" xmlns="http://www.w3.org/2000/svg" xmlns:xlink="http://www.w3.org/1999/xlink" x="0px" y="0px"
	 width="300px" height="300px" viewBox="0 0 300 300" enable-background="new 0 0 300 300" xml:space="preserve">
<path d="M276.5,277H23.4c-11.6,0-21-9.4-21-21V48.9c0-11.6,9.4-21,21-21h253.1c11.6,0,21,9.4,21,21V256
	C297.5,267.6,288.1,277,276.5,277z M23.4,45.9c-1.6,0-3,1.4-3,3V256c0,1.6,1.4,3,3,3h253.1c1.6,0,3-1.4,3-3V48.9c0-1.6-1.4-3-3-3
	H23.4z"/>
<polygon points="147.3,173.4 6.6,85.9 16.2,70.7 147.3,152.2 280.7,70.6 290.1,86 "/>
<polygon points="14.4,221.6 8.4,213.6 112.4,135.2 147.3,156.9 184.2,134.4 291.4,211 285.6,219.1 183.8,146.3 147.3,168.7 
	112.9,147.3 "/>
</svg>
