<svg id="Camada_1" data-name="Camada 1" xmlns="http://www.w3.org/2000/svg" width="293" height="249" viewBox="0 0 293 249">
  <title>envelope</title>
  <path d="M264.8,274.6H37.8A32.8,32.8,0,0,1,5.1,241.8V58.4A32.8,32.8,0,0,1,37.8,25.6h227a32.8,32.8,0,0,1,32.8,32.8V241.8A32.8,32.8,0,0,1,264.8,274.6ZM37.8,43.6A14.8,14.8,0,0,0,23.1,58.4V241.8a14.8,14.8,0,0,0,14.8,14.8h227a14.8,14.8,0,0,0,14.8-14.7V58.4a14.8,14.8,0,0,0-14.7-14.7H37.8Z" transform="translate(-5.1 -25.6)"/>
  <path d="M265.1,274.6H38.1a33,33,0,0,1-33-33V58.6a33,33,0,0,1,33-33h227a33,33,0,0,1,33,33v183A33,33,0,0,1,265.1,274.6Zm-227-231a15,15,0,0,0-15,15v183a15,15,0,0,0,15,15h227a15,15,0,0,0,15-15V58.6a15,15,0,0,0-15-15H38.1Z" transform="translate(-5.1 -25.6)"/>
  <polygon points="12.6 217.3 5.3 210.5 99.2 110.1 146.4 144.8 193.6 110.3 284.6 210.5 277.2 217.2 192.3 123.7 146.4 157.3 100.4 123.4 12.6 217.3"/>
  <polygon points="146.4 162.1 3.7 59.7 14.2 45.1 146.4 140 278.7 46 289.1 60.7 146.4 162.1"/>
</svg>
