<?xml version="1.0" encoding="utf-8"?>
<!-- Generator: Adobe Illustrator 19.2.0, SVG Export Plug-In . SVG Version: 6.00 Build 0)  -->
<svg version="1.1" id="Camada_1" xmlns="http://www.w3.org/2000/svg" xmlns:xlink="http://www.w3.org/1999/xlink" x="0px" y="0px"
	 width="300px" height="300px" viewBox="0 0 300 300" enable-background="new 0 0 300 300" xml:space="preserve">
<path d="M216.9,298H37.1C18.9,298,4,283.1,4,264.9V85.1C4,66.9,18.9,52,37.1,52h127.4v18H37.1C28.8,70,22,76.8,22,85.1v179.7
	c0,8.3,6.8,15.1,15.1,15.1h179.7c8.3,0,15.1-6.8,15.1-15.1V135h18v129.9C250,283.1,235.1,298,216.9,298z"/>
<g>
	<path d="M268.7,127.8c-1.1,0-2.2-0.2-3.3-0.5c-3.8-1.2-6.6-4.5-7.2-8.4l-0.1-0.4l0-0.4l-0.5-74.3c-0.1-0.1-0.2-0.2-0.3-0.3
		l-74.9-0.3l-0.4-0.1c-4-0.6-7.2-3.4-8.4-7.2s-0.3-7.9,2.6-10.8l0.2-0.2L194,9.4c2.3-2.2,5.4-3.3,8.6-2.9l83-0.3l0.4,0.1
		c4.5,0.7,8.1,4.3,8.8,8.8l0.1,0.4l0.2,83c0.4,3.2-0.7,6.4-2.9,8.6l-16,17.5C274.2,126.7,271.5,127.8,268.7,127.8z M268.2,117.4
		c0.1,0.1,0.2,0.2,0.4,0.3c0.3,0.1,0.5,0,0.6-0.1l15.9-17.5c0.1-0.1,0.2-0.3,0.2-0.5l-0.1-0.4l-0.2-82.7c-0.1-0.1-0.1-0.2-0.2-0.3
		l-82.7,0.3l-0.4-0.1c-0.2,0-0.4,0-0.5,0.2l-0.2,0.2l-17.5,15.5c-0.1,0.1-0.2,0.3-0.1,0.5c0.1,0.2,0.2,0.3,0.3,0.4l75,0.3l0.4,0.1
		c4.5,0.7,8.1,4.3,8.8,8.8l0.1,0.4l0,0.4L268.2,117.4z"/>
</g>
</svg>
