<?xml version="1.0" encoding="utf-8"?>
<!-- Generator: Adobe Illustrator 19.2.0, SVG Export Plug-In . SVG Version: 6.00 Build 0)  -->
<svg version="1.1" id="Camada_1" xmlns="http://www.w3.org/2000/svg" xmlns:xlink="http://www.w3.org/1999/xlink" x="0px" y="0px"
	 width="300px" height="300px" viewBox="0 0 300 300" enable-background="new 0 0 300 300" xml:space="preserve">
<path d="M150.7,253.5c-39,0-75.8-10-103.6-28.1c-28.8-18.8-44.6-44-44.6-71.1c0-27.1,15.8-52.4,44.6-71.1
	c27.8-18.1,64.6-28.1,103.6-28.1s75.8,10,103.6,28.1c28.8,18.8,44.6,44,44.6,71.1c0,27.1-15.8,52.4-44.6,71.1
	C226.5,243.6,189.7,253.5,150.7,253.5z M150.7,70.2c-36.1,0-70,9.1-95.4,25.6c-24.4,15.9-37.8,36.7-37.8,58.5
	c0,21.9,13.4,42.6,37.8,58.5c25.4,16.5,59.2,25.6,95.4,25.6c36.1,0,70-9.1,95.4-25.6c24.4-15.9,37.8-36.7,37.8-58.5
	c0-21.9-13.4-42.6-37.8-58.5C220.7,79.3,186.8,70.2,150.7,70.2z"/>
<path d="M149.6,231.8c-43.3,0-78.6-35.3-78.6-78.6s35.3-78.6,78.6-78.6c43.3,0,78.6,35.3,78.6,78.6S193,231.8,149.6,231.8z
	 M149.6,88c-35.9,0-65.2,29.2-65.2,65.2c0,35.9,29.2,65.2,65.2,65.2s65.2-29.2,65.2-65.2C214.8,117.3,185.6,88,149.6,88z"/>
<path d="M182.6,146.6c-9.2,0-16.6-7.4-16.6-16.6c0-4.9,2.1-9.3,5.5-12.3c-6.3-3.9-13.6-6.1-21.5-6.1c-22.7,0-41.2,18.4-41.2,41.2
	c0,22.7,18.4,41.2,41.2,41.2s41.2-18.4,41.2-41.2c0-2.8-0.3-5.5-0.8-8.1C188,146,185.3,146.6,182.6,146.6z"/>
</svg>
