<?xml version="1.0" encoding="utf-8"?>
<!-- Generator: Adobe Illustrator 19.2.0, SVG Export Plug-In . SVG Version: 6.00 Build 0)  -->
<svg version="1.1" id="Camada_1" xmlns="http://www.w3.org/2000/svg" xmlns:xlink="http://www.w3.org/1999/xlink" x="0px" y="0px"
	 width="300px" height="300px" viewBox="0 0 300 300" enable-background="new 0 0 300 300" xml:space="preserve">
<path d="M149.7,287.1c-2.4,0-4.9-0.5-7-1.7c-49-27.4-84-56.9-110-92.9c-20.9-29-30.5-57.9-29.3-88.6c0.9-22.8,10.1-44.2,25.9-60.3
	C45.3,27.5,66.5,18,89.2,17c22.6-1,43,6.6,60.8,22.7c0.2-0.2,0.4-0.3,0.6-0.5c4.8-3.8,9.8-7.7,15.4-10.9
	c24.1-13.6,52.1-15.1,76.8-4.1c25.8,11.5,45,35.3,51.4,63.8c6,26.7,1.5,53.7-13.7,82.8c-15.4,29.6-39,56-72.1,80.9
	c-12.3,9.2-25.4,17.5-38.1,25.5c-3.9,2.5-7.8,4.9-11.6,7.4C156.4,286.1,153.1,287.1,149.7,287.1z M93,35c-1,0-2,0-3,0.1
	C52.5,36.7,23,66.6,21.5,104.7c-1.1,26.4,7.4,51.7,25.9,77.3c24.1,33.4,56.8,61,102.6,86.9c3.6-2.3,7.1-4.5,10.7-6.8
	c12.4-7.8,25.2-15.9,36.9-24.7c30.9-23.2,52.8-47.6,67-74.8c13.1-25.1,17.1-48.2,12.1-70.6c-5.1-23-20.5-42.1-41.1-51.3
	C216,32,193.9,33.2,174.9,44c-4.4,2.5-8.7,5.8-13.1,9.4c-2.2,1.8-4.5,3.6-7,5.4l-6,4.4l-6.3-5.9c-0.8-0.8-1.8-1.6-2.7-2.5
	C126,41.6,110.3,35,93,35z"/>
</svg>
