<?xml version="1.0" encoding="utf-8"?>
<!-- Generator: Adobe Illustrator 19.2.0, SVG Export Plug-In . SVG Version: 6.00 Build 0)  -->
<svg version="1.1" id="Camada_1" xmlns="http://www.w3.org/2000/svg" xmlns:xlink="http://www.w3.org/1999/xlink" x="0px" y="0px"
	 width="300px" height="300px" viewBox="0 0 300 300" enable-background="new 0 0 300 300" xml:space="preserve">
<g>
	<path d="M151,219c-59.6,0-108-48.4-108-108C43,51.4,91.4,3,151,3c59.6,0,108,48.4,108,108C259,170.6,210.6,219,151,219z M151,21
		c-49.6,0-90,40.4-90,90s40.4,90,90,90s90-40.4,90-90S200.6,21,151,21z"/>
	<path d="M152,236c-12.1,0-23.9-1.7-34.9-5l35.9,56.1l37.3-57.1C178.2,233.9,165.3,236,152,236z"/>
	<polygon points="94.3,136 152.7,78.2 210,136 	"/>
</g>
</svg>
