<?xml version="1.0" encoding="utf-8"?>
<!-- Generator: Adobe Illustrator 19.0.0, SVG Export Plug-In . SVG Version: 6.00 Build 0)  -->
<svg version="1.1" baseProfile="tiny" id="Layer_1" xmlns="http://www.w3.org/2000/svg" xmlns:xlink="http://www.w3.org/1999/xlink"
	 x="0px" y="0px" viewBox="0 0 300 300" xml:space="preserve">
<path id="XMLID_8_" d="M238.8,83H198V68.6c0-26.2-21.3-47.6-47.5-47.6c-26.2,0-47.5,21.3-47.5,47.6V83H62.6C47.7,83,39,93,39,110.3
	v140c0,17.2,10,27.7,24.6,27.7h175.2c9.3,0,23.2-7.2,23.2-27.1V109.6C262,89.7,248.2,83,238.8,83z M120,68.6
	c0-16.9,13.6-30.6,30.5-30.6c16.9,0,30.5,13.7,30.5,30.6V83h-61V68.6z M245,252.9c0,5.7-2.7,8.1-6.3,8.1c-4.5,0-174.1,0-174.1,0
	c-6.1,0-8.5-2.7-8.5-9.1c0-6.4-0.1-142.8-0.1-142.8c0-6,2.2-9.1,7.6-9.1h175.1c3.6,0,6.3,2.8,6.3,7.6C245,107.6,245,246,245,252.9z"
	/>
<path id="XMLID_6_" d="M169.7,170.4c0-10.5-8.5-19.1-19.1-19.1s-19.1,8.5-19.1,19.1c0,7.5,4.5,13.9,10.5,17.1v21.9
	c0,4.7,3.8,8.5,8.5,8.5s8.5-3.8,8.5-8.5v-21.9C165,184.3,169.7,177.9,169.7,170.4z"/>
</svg>
