<?xml version="1.0" encoding="utf-8"?>
<!-- Generator: Adobe Illustrator 19.2.0, SVG Export Plug-In . SVG Version: 6.00 Build 0)  -->
<svg version="1.1" id="Camada_1" xmlns="http://www.w3.org/2000/svg" xmlns:xlink="http://www.w3.org/1999/xlink" x="0px" y="0px"
	 width="300px" height="300px" viewBox="0 0 300 300" enable-background="new 0 0 300 300" xml:space="preserve">
<path d="M118.9,232.2c-62.2,0-112.9-50.6-112.9-112.9S56.7,6.4,118.9,6.4s112.9,50.6,112.9,112.9S181.2,232.2,118.9,232.2z
	 M118.9,24.4c-52.3,0-94.9,42.6-94.9,94.9s42.6,94.9,94.9,94.9s94.9-42.6,94.9-94.9S171.3,24.4,118.9,24.4z"/>
<path d="M293.2,274.5L216,197.3c-5.4,6.8-11.5,13.1-18.1,18.7l76.9,76.9c4.7,4.7,12.3,4.7,17,0l1.4-1.4
	C297.8,286.8,297.8,279.1,293.2,274.5z"/>
</svg>
