<?xml version="1.0" encoding="utf-8"?>
<!-- Generator: Adobe Illustrator 19.2.0, SVG Export Plug-In . SVG Version: 6.00 Build 0)  -->
<svg version="1.1" id="Camada_1" xmlns="http://www.w3.org/2000/svg" xmlns:xlink="http://www.w3.org/1999/xlink" x="0px" y="0px"
	 width="300px" height="300px" viewBox="0 0 300 300" enable-background="new 0 0 300 300" xml:space="preserve">
<path d="M65.4,277.3c-9,0-18.3-3.8-24.4-9.9l-6.1-5.6c-5.2-5.3-9.1-13.2-10.4-21.2c-1.4-8.7,0.3-16.4,4.9-21.8l9.6-36.1l81.3,80.4
	l-37.9,8.5C77.5,275.5,71.5,277.3,65.4,277.3z M43.2,253.2l6.1,5.6c6.5,6.5,19.5,9.3,25.8,2.9l1.2-1.2l19.7-4.4l-50.9-50.4
	l-5.1,19.1l-1.1,1.1c-2.6,2.6-3.6,7.2-2.7,12.7C37.1,244.2,39.8,249.8,43.2,253.2z"/>
<path d="M271.6,118.1l-85.6-86.9l14.3-14.1c5.3-5.3,12.7-8.4,20.3-8.8c8.1-0.3,15.4,2.5,20.8,7.9L286,61.5
	C297.1,72.8,297,93,285.9,104L271.6,118.1z M202.9,31.4l68.8,69.8l5.8-5.7c6.4-6.3,6.4-19-0.1-25.5l-44.6-45.2
	c-2.9-3-7.1-4.5-11.8-4.4c-4.6,0.2-9.2,2.1-12.4,5.3L202.9,31.4z"/>
<path d="M43.2,212.6l-1.1-1.1c-10.6-10.8-9.8-28.9,1.8-40.3L180.2,36.8l20.4,20.7l-8.5,8.4l-11.9-12.1L52.3,179.7
	c-6,5.9-8.4,16.6-1.7,23.3l1.1,1.1L43.2,212.6z"/>
<path d="M92.2,234.9c-4.7,0-9.2-2-13.1-6l-4.8-4.9c-5.5-5.6-7.5-12.5-5.7-20c1.4-5.8,5-11.7,10.6-17.2L205.5,62.5l35.1,35.6
	L114.3,222.5c-4.4,4.3-9.7,9-15.5,11.2C96.5,234.5,94.3,234.9,92.2,234.9z M205.4,79.5L87.6,195.4c-3.9,3.9-6.5,7.9-7.4,11.4
	c-0.8,3.4,0,6.2,2.6,8.8l4.8,4.9c2.7,2.7,4.7,2.8,7,1.9c3.7-1.4,8-5.3,11.3-8.5L223.6,98L205.4,79.5z"/>
<path d="M108.3,266.9c-7.2,0-14.2-2.6-19.4-8l-0.7-0.8l8.5-8.4l0.7,0.8c6.1,6.2,16.9,5.7,23.7-1l127.8-125.9L237,111.5l8.5-8.4
	l20.4,20.7L129.5,258.1C123.5,264,115.8,266.9,108.3,266.9z"/>
<path d="M54,281.5H21v-33C27.8,264.1,35.4,272.2,54,281.5z"/>
</svg>
