<?xml version="1.0" encoding="UTF-8"?>
<svg width="273px" height="274px" viewBox="0 0 273 274" version="1.1" xmlns="http://www.w3.org/2000/svg" xmlns:xlink="http://www.w3.org/1999/xlink">
    <!-- Generator: Sketch 53.2 (72643) - https://sketchapp.com -->
    <title>plus</title>
    <desc>Created with Sketch.</desc>
    <g id="Page-1" stroke="none" stroke-width="1" fill="none" fill-rule="evenodd">
        <g id="plus" transform="translate(-13.000000, -13.000000)" fill="#000000" fill-rule="nonzero">
            <path d="M43.792876,62.6017449 C50.0592403,56.3330686 56.1932232,50.1968025 62.361247,44.0264882 C101.549899,83.2246305 109.964112,91.6483645 149.252995,130.945815 C188.660077,91.5301411 197.095093,83.0855998 236.379249,43.7928787 C242.49432,49.9083375 248.424058,55.8393678 254.355686,61.770398 C215.081931,101.052715 206.642188,109.50104 167.256855,148.89496 C207.014747,188.660575 215.726817,197.382231 255.243586,236.906671 C249.084072,243.067528 242.97562,249.178258 236.910664,255.243589 C197.462923,215.787247 188.733832,207.049512 149.034567,167.34159 C109.494158,206.89062 101.06198,215.332323 61.7929529,254.609912 C55.776222,248.591869 49.8512124,242.665568 43.8486653,236.662658 C83.083651,197.419117 91.5111017,188.983088 130.825516,149.660101 C91.4345096,110.260507 83.0212427,101.838665 43.792876,62.6017449 Z" id="Path" transform="translate(149.518231, 149.518234) rotate(45.000000) translate(-149.518231, -149.518234) "></path>
        </g>
    </g>
</svg>