<?xml version="1.0" encoding="utf-8"?>
<!-- Generator: Adobe Illustrator 19.2.0, SVG Export Plug-In . SVG Version: 6.00 Build 0)  -->
<svg version="1.1" id="Camada_1" xmlns="http://www.w3.org/2000/svg" xmlns:xlink="http://www.w3.org/1999/xlink" x="0px" y="0px"
	 width="300px" height="300px" viewBox="0 0 300 300" enable-background="new 0 0 300 300" xml:space="preserve">
<path d="M240,75h-18V30c0-1.6-1.4-3-3-3H80c-1.6,0-3,1.4-3,3v45H59V30c0-11.6,9.4-21,21-21h139c11.6,0,21,9.4,21,21V75z"/>
<path d="M200,293h-99c-11.6,0-21-9.4-21-21v-50h18v50c0,1.6,1.4,3,3,3h99c1.6,0,3-1.4,3-3v-50h18v50C221,283.6,211.6,293,200,293z"
	/>
<path d="M269,268h-36v-59H68v59H30c-11.6,0-21-9.4-21-21V105c0-11.6,9.4-21,21-21h239c11.6,0,21,9.4,21,21v142
	C290,258.6,280.6,268,269,268z M251,250h18c1.6,0,3-1.4,3-3V105c0-1.6-1.4-3-3-3H30c-1.6,0-3,1.4-3,3v142c0,1.6,1.4,3,3,3h20v-59
	h201V250z"/>
</svg>
