<?xml version="1.0" encoding="utf-8"?>
<!-- Generator: Adobe Illustrator 19.0.0, SVG Export Plug-In . SVG Version: 6.00 Build 0)  -->
<svg version="1.1" baseProfile="tiny" id="Layer_1" xmlns="http://www.w3.org/2000/svg" xmlns:xlink="http://www.w3.org/1999/xlink"
	 x="0px" y="0px" viewBox="0 0 300 300" xml:space="preserve">
<g id="XMLID_2_">
	<path id="XMLID_21_" d="M70.2,268.4c-6.9,0-14.1-2.9-18.8-7.5l-4.5-4.1c-8.2-8.3-11.6-23.9-4.3-33l7.6-28.5l62.8,62.1l-29.9,6.7
		C79.4,267.1,74.9,268.4,70.2,268.4z M55.4,248.2l4.4,4.1c2.2,2.2,5.4,3.7,8.8,4.1c1.8,0.2,5.2,0.2,7.4-2l1.2-1.2l11.7-2.6
		l-32.4-32.1l-3,11.4l-1.1,1.1C48.9,234.5,51.2,243.9,55.4,248.2z"/>
	<g id="XMLID_16_">
		<path id="XMLID_18_" d="M264.2,114.2l-68.7-70l14.1-13.9c11.3-11.1,29.7-11.5,40.3-0.8l28.5,29.2c10.9,11,10.8,30.8-0.1,41.6
			L264.2,114.2z M212.5,44.3l51.9,52.9l5.5-5.4c6.2-6.1,6.2-18.3-0.1-24.6l-28.5-29.2c-2.8-2.9-6.9-4.4-11.3-4.2
			c-4.5,0.2-8.8,2-12,5.1L212.5,44.3z"/>
		<path id="XMLID_19_" d="M55.5,219.9c-5.2-5.3-7.8-12.5-7.3-20.2c0.5-7.2,3.7-14.1,9-19.3L190.2,49.5l19.9,20.2l-8.5,8.4L190,66.4
			L65.7,188.9c-5.8,5.7-8.1,16-1.6,22.5L55.5,219.9z"/>
		<path id="XMLID_23_" d="M96.8,235.3c-4.1,0-8.5-1.6-12.7-5.9l-4.7-4.7c-5.4-5.5-7.4-12.3-5.6-19.6c1.3-5.6,4.9-11.4,10.4-16.8
			L207.3,67l34.4,34.9L118.6,223.1C114.7,226.9,106.2,235.3,96.8,235.3z M207.2,84L92.6,196.7c-3.8,3.7-6.3,7.7-7.1,11
			c-0.8,3.2,0,5.9,2.5,8.4l4.7,4.7c2.6,2.6,4.4,2.6,6.6,1.8c3.6-1.3,7.7-5.1,10.9-8.2l114.6-112.8L207.2,84z"/>
		<path id="XMLID_125_" d="M105.1,259c-7.3,0-14-2.7-18.9-7.8l8.5-8.4c2.8,2.9,6.8,4.3,11.1,4.2c4.4-0.2,8.6-2.1,11.8-5.1
			l124.3-122.5l-11.5-11.7l8.5-8.4l19.9,20.2L126,250.3c-5.2,5.1-12.4,8.3-19.7,8.6C105.9,258.9,105.5,259,105.1,259z"/>
	</g>
	<path id="XMLID_20_" d="M62,269.8H38.2V246C43.1,257.3,48.6,263.1,62,269.8z"/>
</g>
<g id="XMLID_226_">
	<path id="XMLID_159_" d="M75,77.3c-1.3,0-2.6-0.5-3.5-1.5c-2-2-2-5.1,0-7.1l19.9-19.9c2-2,5.1-2,7.1,0c2,2,2,5.1,0,7.1L78.5,75.8
		C77.5,76.8,76.2,77.3,75,77.3z"/>
	<path id="XMLID_161_" d="M89.1,91.4c-1.3,0-2.6-0.5-3.5-1.5c-2-2-2-5.1,0-7.1l19.9-19.9c2-2,5.1-2,7.1,0c2,2,2,5.1,0,7.1L92.6,89.9
		C91.7,90.9,90.4,91.4,89.1,91.4z"/>
	<path id="XMLID_163_" d="M103.2,105.5c-1.3,0-2.6-0.5-3.5-1.5c-2-2-2-5.1,0-7.1l19.9-19.9c2-2,5.1-2,7.1,0c2,2,2,5.1,0,7.1
		l-19.9,19.9C105.8,105.1,104.5,105.5,103.2,105.5z"/>
	<path id="XMLID_162_" d="M215,217.3c-1.3,0-2.6-0.5-3.5-1.5c-2-2-2-5.1,0-7.1l19.9-19.9c2-2,5.1-2,7.1,0c2,2,2,5.1,0,7.1
		l-19.9,19.9C217.5,216.8,216.2,217.3,215,217.3z"/>
	<path id="XMLID_160_" d="M229.1,231.4c-1.3,0-2.6-0.5-3.5-1.5c-2-2-2-5.1,0-7.1l19.9-19.9c2-2,5.1-2,7.1,0c2,2,2,5.1,0,7.1
		L232.7,230C231.7,230.9,230.4,231.4,229.1,231.4z"/>
	<g id="XMLID_228_">
		<path id="XMLID_227_" d="M72.9,147.9L13.8,88.8c-1.7-1.7-2.6-4-2.6-6.4c0-2.4,0.9-4.7,2.6-6.4l52.4-52.4c3.5-3.5,9.2-3.5,12.7,0
			L138,82.7l-12.7,12.7L72.6,42.7L32.9,82.4l52.7,52.7L72.9,147.9z"/>
		<path id="XMLID_229_" d="M212,283.2c-2.3,0-4.6-0.9-6.4-2.6l-45-45l12.7-12.7l38.6,38.6l39.7-39.7l-38.6-38.6l12.7-12.7l45,45
			c1.7,1.7,2.6,4,2.6,6.4s-0.9,4.7-2.6,6.4l-52.4,52.4C216.6,282.4,214.3,283.2,212,283.2z"/>
	</g>
</g>
</svg>
