<?xml version="1.0" encoding="iso-8859-1"?>
<!-- Generator: Adobe Illustrator 19.2.0, SVG Export Plug-In . SVG Version: 6.00 Build 0)  -->
<svg version="1.1" id="Camada_1" xmlns="http://www.w3.org/2000/svg" xmlns:xlink="http://www.w3.org/1999/xlink" x="0px" y="0px"
	 width="300px" height="300px" viewBox="0 0 300 300" style="enable-background:new 0 0 300 300;" xml:space="preserve">
<path d="M145.606,230.333c-8.531-1.792-17.035-1.489-25.86-0.399c-0.189-2.292-0.542-4.522-0.53-6.751
	c0.139-24.833,7.229-48.499,22.214-70.822c5.187-7.727,12.233-14.499,19.763-21.061c10.762-9.38,20.825-19.147,28.72-30.018
	c6.33-8.716,10.742-17.89,11.859-27.791c1.189-10.546-0.557-20.744-7.719-30.128c-8.514-11.157-21.849-17.672-38.355-20.947
	c-14.563-2.89-29.303-2.919-44.111-1.157c-12.941,1.54-25.329,4.358-37.32,8.784c-2.188-4.208-4.357-8.381-6.665-12.821
	c4.669-1.554,9.158-3.225,13.821-4.569c22.087-6.368,45.043-9.099,68.718-8.32c15.889,0.523,31.249,2.858,45.378,8.509
	c21.167,8.466,33.743,21.563,38.012,38.892c3.792,15.392,0.055,30.029-9.15,44.007c-7.238,10.99-17.021,20.742-27.359,30.216
	c-5.869,5.378-12.077,10.566-17.701,16.077c-10.245,10.04-17.025,21.393-22.283,33.262c-5.23,11.808-8.727,23.901-10.276,36.256
	c-0.742,5.916-0.708,11.885-1.03,17.83C145.718,229.665,145.659,229.947,145.606,230.333z"/>
<path d="M115.078,280.956c0-11.364,7.679-19.35,18.429-19.35c10.75,0,18.122,7.985,18.122,19.35
	c0,10.751-7.064,19.044-18.429,19.044C122.45,300,115.078,291.707,115.078,280.956z"/>
</svg>
