<?xml version="1.0" encoding="iso-8859-1"?>
<!-- Generator: Adobe Illustrator 19.0.0, SVG Export Plug-In . SVG Version: 6.00 Build 0)  -->
<svg version="1.1" baseProfile="tiny" id="Layer_1" xmlns="http://www.w3.org/2000/svg" xmlns:xlink="http://www.w3.org/1999/xlink"
	 x="0px" y="0px" viewBox="0 0 300 300" xml:space="preserve">
<g id="XMLID_1616_">
	<path id="XMLID_1617_" d="M130.536,194.844c-1.898-13.286-0.592-24.852,3.914-34.702c4.506-9.843,10.146-18.685,16.91-26.514
		c6.759-7.831,12.867-15.359,18.325-22.602c5.458-7.235,8.189-15.125,8.189-23.666c0-8.775-2.672-16.072-8.006-21.889
		c-5.339-5.81-12.877-8.719-22.604-8.719c-7.356,0-14.233,1.723-20.642,5.159c-6.404,3.444-12.221,8.132-17.437,14.058
		L88.182,56.753c7.834-8.775,17.087-16.018,27.761-21.712c10.678-5.694,22.54-8.541,35.595-8.541
		c18.266,0,33.213,5.043,44.843,15.125c11.62,10.089,17.437,24.502,17.437,43.243c0,11.388-2.79,21.354-8.361,29.895
		c-5.581,8.544-11.926,16.673-19.045,24.381c-7.114,7.713-13.168,15.958-18.147,24.734c-4.984,8.783-6.764,19.104-5.339,30.965
		H130.536z M147.263,273.5c-6.882,0-12.695-2.438-17.437-7.296c-4.748-4.861-7.119-10.972-7.119-18.33
		c0-7.59,2.371-13.88,7.119-18.862c4.743-4.984,10.555-7.474,17.437-7.474c6.882,0,12.69,2.49,17.442,7.474
		c4.743,4.982,7.119,11.272,7.119,18.862c0,7.358-2.376,13.469-7.119,18.33C159.953,271.062,154.146,273.5,147.263,273.5z"/>
</g>
</svg>
