<?xml version="1.0" encoding="utf-8"?>
<!-- Generator: Adobe Illustrator 19.0.0, SVG Export Plug-In . SVG Version: 6.00 Build 0)  -->
<svg version="1.2" baseProfile="tiny" id="Camada_1"
	 xmlns="http://www.w3.org/2000/svg" xmlns:xlink="http://www.w3.org/1999/xlink" x="0px" y="0px" viewBox="0 0 300 300"
	 xml:space="preserve">
<path stroke="#000000" stroke-width="2" stroke-miterlimit="10" d="M105.4,28.5c10-4.7,15.6-6.8,23.4-8.7
	c42.5-10.3,76.9,2.8,104.9,35c5.3,6.1,10,12.6,15.5,19.7c9.8-5.8,19.2-11.8,28.9-17.1c2.8-1.5,7.6-2.6,9.7-1.2
	c2.1,1.3,3,6.3,2.5,9.4c-4.9,34.9-10.2,69.7-15.5,104.5c-1.4,9-3.9,10.5-12.5,7.5c-33.5-11.8-67-23.5-100.3-35.6
	c-2.7-1-6.6-4.1-6.6-6.2c0-2.8,2.7-6.5,5.3-8.2c9.5-6.3,19.4-11.9,29.9-18.1c-16.4-26.9-35.3-49.3-66.5-57.4
	c-12.2-3.2-43,1.4-46.3,1.4C78.1,50.1,88.1,36.3,105.4,28.5z M176.7,133.3c29.7,10.5,57.4,20.2,85.8,30.2c4.5-30,8.8-58.8,13.5-89.6
	c-9,5.4-16.2,9.4-23.1,13.9c-6.1,4-9.7-1.2-13.8-6.9c-6.9-9.8-13.9-16.1-22.3-24.6c-27.4-27.9-67.7-35.3-97.8-20
	c12,5.2,26,9.5,38.1,16.9c21.2,12.9,35.3,32.9,48,53.9c2.9,4.8,1.5,8.4-3.2,11.1C194.1,122.8,186.3,127.5,176.7,133.3z"/>
<path stroke="#000000" stroke-width="2" stroke-miterlimit="10" d="M196.7,270.8c-10,4.7-15.6,6.8-23.4,8.7
	c-42.5,10.3-76.9-2.8-104.9-35c-5.3-6.1-10-12.6-15.5-19.7c-9.8,5.8-19.2,11.8-28.9,17.1c-2.8,1.5-7.6,2.6-9.7,1.2
	c-2.1-1.3-3-6.3-2.5-9.4c4.9-34.9,10.2-69.7,15.5-104.5c1.4-9,3.9-10.5,12.5-7.5c33.5,11.8,67,23.5,100.3,35.6
	c2.7,1,6.6,4.1,6.6,6.2c0,2.8-2.7,6.5-5.3,8.2c-9.5,6.3-19.4,11.9-29.9,18.1c16.4,26.9,35.3,49.3,66.5,57.4
	c12.2,3.2,43-1.4,46.3-1.4C224,249.2,214,263.1,196.7,270.8z M125.4,166.1c-29.7-10.5-57.4-20.2-85.8-30.2
	c-4.5,30-8.8,58.8-13.5,89.6c9-5.4,16.2-9.4,23.1-13.9c6.1-4,9.7,1.2,13.8,6.9c6.9,9.8,13.9,16.1,22.3,24.6
	c27.4,27.9,67.7,35.3,97.8,20c-12-5.2-26-9.5-38.1-16.9c-21.2-12.9-35.3-32.9-48-53.9c-2.9-4.8-1.5-8.4,3.2-11.1
	C108.1,176.5,115.8,171.8,125.4,166.1z"/>
</svg>
