<?xml version="1.0" encoding="utf-8"?>
<!-- Generator: Adobe Illustrator 19.0.0, SVG Export Plug-In . SVG Version: 6.00 Build 0)  -->
<svg version="1.2" baseProfile="tiny" id="Layer_1" xmlns="http://www.w3.org/2000/svg" xmlns:xlink="http://www.w3.org/1999/xlink"
	 x="0px" y="0px" viewBox="-720.5 271.4 300 300" xml:space="preserve">
<title>Icon/Black/Logout</title>
<desc>Created with Sketch.</desc>
<g id="Symbols">
	<g id="Icon_x2F_Black_x2F_Logout">
		<path id="Fill-3" d="M-448.9,534.4h-164.2c-16,0-28.4-13.6-28.4-29.6v-56.8h17.3v56.8c0,6.2,4.9,12.3,12.3,12.3h164.2
			c6.2,0,12.3-4.9,12.3-12.3V338.1c0-6.2-4.9-12.3-12.3-12.3h-164.2c-6.2,0-12.3,4.9-12.3,12.3v43.2h-17.3v-43.2
			c0-16,13.6-29.6,28.4-29.6h164.2c16,0,28.4,13.6,28.4,29.6v166.7C-420.5,522-432.8,534.4-448.9,534.4"/>
		<path id="Fill-5" d="M-547.7,406v19.8c0,1.2,0,1.2-1.2,2.5c0,0-1.2,1.2-2.5,1.2h-123.5v22.2c0,1.2-1.2,2.5-2.5,2.5
			c-1.2,0-2.5,0-3.7,0l-38.3-34.6c-1.2-1.2-1.2-1.2-1.2-2.5s0-1.2,1.2-2.5l38.3-35.8c1.2-1.2,2.5-1.2,3.7,0c1.2,0,2.5,1.2,2.5,2.5
			v22.2h123.5c1.2,0,1.2,0,2.5,1.2C-547.7,403.5-547.7,404.7-547.7,406"/>
	</g>
</g>
</svg>
