<?xml version="1.0" encoding="utf-8"?>
<!-- Generator: Adobe Illustrator 19.2.0, SVG Export Plug-In . SVG Version: 6.00 Build 0)  -->
<svg version="1.1" id="Camada_1" xmlns="http://www.w3.org/2000/svg" xmlns:xlink="http://www.w3.org/1999/xlink" x="0px" y="0px"
	 width="300px" height="300px" viewBox="0 0 300 300" enable-background="new 0 0 300 300" xml:space="preserve">
<g>
	<path d="M151.2,189.3c-20.3,0-39.2-10-53.3-28.1c-13.5-17.5-21-40.6-21-65s7.5-47.6,21-65C112,13,130.9,3,151.2,3
		s39.2,10,53.3,28.1c13.5,17.5,21,40.6,21,65s-7.5,47.6-21,65C190.4,179.3,171.5,189.3,151.2,189.3z M151.2,21
		C120.2,21,95,54.7,95,96.1s25.2,75.1,56.2,75.1c31,0,56.3-33.7,56.3-75.1S182.2,21,151.2,21z"/>
	<path d="M297.7,298H3l-1-7.8c-0.1-0.7-2.1-16.4,4.5-35c6-17.1,20.7-40.1,56.2-52.4c11.1-3.8,22.5-7.8,32.8-10.5l4.6-1.2l3.6,3.2
		c14.2,12.4,30.6,19,47.6,19c17.1,0,33.7-6.7,48-19.3l3.6-3.2l4.7,1.2c9.9,2.6,20,5.7,30.1,9.2c34.4,11.9,49.1,35.4,55.5,52.9
		c6.8,18.9,5.5,35.1,5.5,35.7L297.7,298z M19.7,280h260.7c-1.2-15.4-8.6-48-48.8-61.9l0,0c-8.1-2.8-16.2-5.3-24.3-7.5
		c-16.7,13.5-36.1,20.7-56.2,20.7c-19.9,0-39.1-7-55.7-20.3c-8.5,2.5-17.9,5.7-27.1,8.9c-23,8-38.2,21.9-45.1,41.4
		C20.8,268.4,20,275.1,19.7,280z"/>
</g>
</svg>
