<?xml version="1.0" encoding="utf-8"?>
<!-- Generator: Adobe Illustrator 19.2.0, SVG Export Plug-In . SVG Version: 6.00 Build 0)  -->
<svg version="1.1" id="Camada_1" xmlns="http://www.w3.org/2000/svg" xmlns:xlink="http://www.w3.org/1999/xlink" x="0px" y="0px"
	 width="300px" height="300px" viewBox="0 0 300 300" enable-background="new 0 0 300 300" xml:space="preserve">
<path d="M168.3,290.2c-8.5,0-16.9-3.2-23.3-9.6l-103-103l-0.5-2.6c-0.1-0.3-6.7-32.2-12.1-64.7c-3.2-19.3-5.3-35-6.4-46.9
	c-1.9-21.8,0-28.4,3.9-32.3l2.1-2.1c3.9-3.9,10.5-5.8,32.3-3.9c11.9,1,27.7,3.2,46.9,6.4c32.6,5.4,64.4,12,64.7,12.1l2.6,0.5
	l103,103c12.9,12.9,12.9,33.8,0,46.7l-87,87C185.2,287,176.7,290.2,168.3,290.2z M58.5,168.6l99.2,99.2c5.8,5.8,15.4,5.8,21.2,0
	l87-87c5.8-5.8,5.8-15.4,0-21.2l-99.2-99.2c-7.8-1.6-32-6.4-57.3-10.7c-52-8.8-65.4-7.8-68.6-7.2l-0.2,0.2
	c-0.6,3.2-1.6,16.6,7.2,68.7C52,136.7,56.9,160.8,58.5,168.6z M40,42.7C40,42.7,40,42.7,40,42.7L40,42.7z M40.7,42
	C40.7,42,40.7,42,40.7,42z"/>
<path d="M87,121.8c-18.5,0-33.5-15-33.5-33.5s15-33.5,33.5-33.5s33.5,15,33.5,33.5S105.5,121.8,87,121.8z M87,72.8
	c-8.5,0-15.5,7-15.5,15.5s7,15.5,15.5,15.5s15.5-7,15.5-15.5S95.5,72.8,87,72.8z"/>
<path d="M122.2,8.6c-6.1,11.9-12.2,24-16.7,36.7c-2.3,6.4-2.2,13.2-4.4,19.5c-2.7,7.8-10,13.2-16.7,17.5C78,86.5,84,96.9,90.5,92.7
	c7.2-4.6,14.1-10,18.7-17.3c4.5-7.1,4.1-14.9,6.4-22.6c3.9-13.3,10.6-25.8,16.9-38.1C136,7.8,125.7,1.8,122.2,8.6L122.2,8.6z"/>
</svg>
