<?xml version="1.0" encoding="utf-8"?>
<!-- Generator: Adobe Illustrator 19.2.0, SVG Export Plug-In . SVG Version: 6.00 Build 0)  -->
<svg version="1.1" id="Layer_1" xmlns="http://www.w3.org/2000/svg" xmlns:xlink="http://www.w3.org/1999/xlink" x="0px" y="0px"
	 width="300px" height="300px" viewBox="0 0 300 300" style="enable-background:new 0 0 300 300;" xml:space="preserve">
<style type="text/css">
	.st0{fill:#010101;}
</style>
<path class="st0" d="M95.4,299.6H62.2c-3.2,0-5.8-2.6-5.8-5.8V192.1c0-3.2,2.6-5.8,5.8-5.8h33.3c3.2,0,5.8,2.6,5.8,5.8v101.7
	C101.2,297,98.6,299.6,95.4,299.6z M67.9,288h21.7v-90.1H67.9V288z"/>
<path class="st0" d="M112.1,197.9H45.5c-3.2,0-5.8-2.6-5.8-5.8c0-3.2,2.6-5.8,5.8-5.8h66.6c3.2,0,5.8,2.6,5.8,5.8
	C117.9,195.3,115.3,197.9,112.1,197.9z"/>
<path class="st0" d="M78.8,196.9c-3.2,0-5.8-2.6-5.8-5.8V9c0-3.2,2.6-5.8,5.8-5.8c3.2,0,5.8,2.6,5.8,5.8v182.1
	C84.6,194.4,82,196.9,78.8,196.9z"/>
<path class="st0" d="M78.8,28.3L78.8,28.3c-2.4,0-4.6-1.5-5.4-3.7L67.9,9.8c-0.7-1.8-0.4-3.8,0.7-5.3C69.6,2.9,71.4,2,73.3,2h11.1
	c1.9,0,3.7,0.9,4.7,2.5c1.1,1.6,1.3,3.5,0.7,5.3l-5.5,14.8C83.4,26.9,81.2,28.3,78.8,28.3z"/>
<path class="st0" d="M259.1,63.1H133.4c-3.2,0-5.8-2.6-5.8-5.8V37c0-20.5,16.7-37.2,37.2-37.2h94.3c3.2,0,5.8,2.6,5.8,5.8v51.8
	C264.9,60.5,262.3,63.1,259.1,63.1z M139.1,51.6h114.2V11.3h-88.5c-14.2,0-25.7,11.5-25.7,25.7V51.6z"/>
<path class="st0" d="M207.3,299.8h-22.2c-3.2,0-5.8-2.6-5.8-5.8V57.3c0-3.2,2.6-5.8,5.8-5.8h22.2c3.2,0,5.8,2.6,5.8,5.8V294
	C213.1,297.2,210.5,299.8,207.3,299.8z M190.9,288.3h10.7V63.1h-10.7V288.3z"/>
</svg>
