<?xml version="1.0" encoding="utf-8"?>
<!-- Generator: Adobe Illustrator 19.2.0, SVG Export Plug-In . SVG Version: 6.00 Build 0)  -->
<svg version="1.1" id="Camada_1" xmlns="http://www.w3.org/2000/svg" xmlns:xlink="http://www.w3.org/1999/xlink" x="0px" y="0px"
	 width="300px" height="300px" viewBox="0 0 300 300" enable-background="new 0 0 300 300" xml:space="preserve">
<path d="M233.7,297H65.2C47.8,297,32,281.3,32,264.1V91h233v173.1C265,281.9,250.7,297,233.7,297z M50,109v155.1
	c0,7.4,7.7,14.9,15.2,14.9h168.5c7.1,0,13.3-7,13.3-14.9V109H50z"/>
<path d="M289,109H8V75.2C8,57.7,21.6,44,39.1,44h218.2c17.5,0,31.8,14,31.8,31.2V109z M26,91h245V75.2c0-7.3-6.2-13.2-13.8-13.2
	H39.1C31.6,62,26,67.7,26,75.2V91z"/>
<path d="M107.1,34h-18c0-18,13.8-32,30.8-32h56.5c17.5,0,32.3,15,32.3,32h-18c0-7-6.8-14-14.3-14h-56.5C112.8,20,107.1,26,107.1,34z
	"/>
<path d="M64.6,266H58v-12h6.6c9.5,0,15.4-9.1,15.4-17.6V137H58v-12h34v111.4C92,252.7,79.7,266,64.6,266z"/>
<path d="M152.9,266h-6.8c-15.5,0-29.1-13.8-29.1-29.6V125h62v111.4C179,253.3,167.8,266,152.9,266z M129,137v99.4
	c0,9.2,8.1,17.6,17.1,17.6h6.8c9.3,0,14.1-8.8,14.1-17.6V137H129z"/>
<path d="M237,266h-6.1c-15.4,0-27.9-13.3-27.9-29.6V125h34v12h-22v99.4c0,9.5,7.3,17.6,15.9,17.6h6.1V266z"/>
</svg>
