<svg xmlns="http://www.w3.org/2000/svg" version="1.2" baseProfile="tiny" viewBox="0 0 300 300"><path d="M292 272.2l-77.7-77.6-.3.4c-5.3 6.8-11.4 13-18 18.6l-.4.4 77.3 77.3c2 2.4 5 3.7 8 3.7s6-1.2 9-3.7l1-1.4c5-5 5-13 0-18zm-180.3-91c-11.4-.2-22-2.4-32-8.2l4-10.8 4.4 2.4c9 4 18 6.2 28 5.7 7-.3 12-2 17-6.2 6-4 8-10 8-18-.2-7-4-12-9-16-4.3-3-9.3-6-14.5-8-5.2-2-10.3-4-15.2-7-4-2-8-5-11.6-8-5-5-7.4-11-7.7-18-1-12.5 4.2-22.2 15-29 4.6-2.7 9.6-4.3 15-5.2 1.3 0 1.3 0 1.3-1.5V33h9.7v20c9 .2 18.3 2 27 6.5L146 70l-1-.7c-7.5-3.8-15.3-5.7-23.6-5.8-4.3 0-8.6.3-12.6 2-6.6 2.6-11 7.3-12.3 14.4-1.4 7 1 13 7 18 3.7 3 8 5 12.2 7l13 6c5.3 2 10.3 5 14.7 9 6 5 10 11 11.3 19 1.7 11-1 21-9 29.3-5 5.2-11.4 8.3-18.4 10-1.6.5-3.3 1-5 1l-.6.2v22H112c-.3-7-.3-14-.3-21z"/><path d="M229 132.6l-.5.4c-2.4 1.7-5.2 2.6-8 2.6-2.7 0-5.5-1-7.8-2.6l-.5-.4-1-.8c-7 45.5-46.4 80.5-93.8 80.5-52.3 0-95-42.6-95-95s42.6-94.8 95-94.8c35.8 0 67.2 20 83.3 49.6L220 88l5-4.8C210.4 37.6 167.7 4.5 117.3 4.5 55 4.5 4.5 55.2 4.5 117.5s50.6 112.8 113 112.8c57 0 104.4-42.7 111.8-97.8h-.3z"/><path d="M282.3 41.5c-2.2-1-4.8-1-6.8.5h-.2l-54.5 55.4h-.5L187 69.8h-.2c-2-1.6-4.6-1.8-6.8-.6s-3.6 3.4-3.6 5.8v16c0 2 1 4 2.6 5l37.6 31.2h.2c1 1 2.5 1.3 3.8 1.3 1.3 0 2.7-.4 3.8-1.2h.2l58.8-55.8c1.6-1.2 2.5-3 2.5-5.2v-19c0-2.5-2-4.7-4-5.8z"/></svg>