<?xml version="1.0" encoding="utf-8"?>
<!-- Generator: Adobe Illustrator 19.2.0, SVG Export Plug-In . SVG Version: 6.00 Build 0)  -->
<svg version="1.1" id="Camada_1" xmlns="http://www.w3.org/2000/svg" xmlns:xlink="http://www.w3.org/1999/xlink" x="0px" y="0px"
	 width="300px" height="300px" viewBox="0 0 300 300" enable-background="new 0 0 300 300" xml:space="preserve">
<path d="M131.9,151.4C90.2,109.8,48.6,68.2,7.1,26.7C13.7,20.1,20.2,13.6,26.8,7c41.4,41.4,83,83,124.6,124.6
	C193,90,234.6,48.3,276.2,6.8c6.5,6.5,12.7,12.7,19,19C253.7,67.3,212,109,170.4,150.6c42,42,84,84,125.7,125.7
	c-6.5,6.5-13,13-19.4,19.4C235,254,193.1,212.1,151.1,170.1c-41.8,41.8-83.4,83.4-125,125c-6.4-6.4-12.6-12.6-19-19
	C48.7,234.6,90.3,193,131.9,151.4z"/>
</svg>
