<?xml version="1.0" encoding="iso-8859-1"?>
<!-- Generator: Adobe Illustrator 19.2.0, SVG Export Plug-In . SVG Version: 6.00 Build 0)  -->
<svg version="1.1" id="Camada_1" xmlns="http://www.w3.org/2000/svg" xmlns:xlink="http://www.w3.org/1999/xlink" x="0px" y="0px"
	 width="600px" height="300px" viewBox="0 0 600 300" style="enable-background:new 0 0 600 300;" xml:space="preserve">
<g>
	<defs>
		<filter id="Adobe_OpacityMaskFilter" filterUnits="userSpaceOnUse" x="215.284" y="41.285" width="383.885" height="259.678">
			<feFlood  style="flood-color:white;flood-opacity:1" result="back"/>
			<feBlend  in="SourceGraphic" in2="back" mode="normal"/>
		</filter>
	</defs>
	<mask maskUnits="userSpaceOnUse" x="215.284" y="41.285" width="383.885" height="259.678" id="SVGID_1_">
		<g style="filter:url(#Adobe_OpacityMaskFilter);">
			<path d="M313.617,301H148.95c-6.6,0-12-5.4-12-12V12c0-6.6,5.4-12,12-12h164.667c6.6,0,12,5.4,12,12v277
				C325.617,295.6,320.217,301,313.617,301z"/>
		</g>
	</mask>
	<g style="mask:url(#SVGID_1_);">
		<g>
			<defs>

					<filter id="Adobe_OpacityMaskFilter_1_" filterUnits="userSpaceOnUse" x="232.502" y="44.102" width="339.449" height="255.898">
					<feFlood  style="flood-color:white;flood-opacity:1" result="back"/>
					<feBlend  in="SourceGraphic" in2="back" mode="normal"/>
				</filter>
			</defs>
			<mask maskUnits="userSpaceOnUse" x="232.502" y="44.102" width="339.449" height="255.898" id="SVGID_1_">
				<g style="filter:url(#Adobe_OpacityMaskFilter_1_);">

						<line style="fill:none;stroke:#72bf44;stroke-width:0.9818;stroke-miterlimit:10;" x1="378.924" y1="41.121" x2="466.308" y2="41.121"/>
				</g>
			</mask>
			<path style="fill:none;stroke:#72bf44;stroke-width:18;stroke-miterlimit:10;" d="M551.169,291H253.284
				c-6.48,0-11.782-5.302-11.782-11.782V64.884c0-6.48,5.302-11.782,11.782-11.782h297.885c6.48,0,11.782,5.302,11.782,11.782
				v214.333C562.951,285.698,557.649,291,551.169,291z"/>
			<defs>

					<filter id="Adobe_OpacityMaskFilter_2_" filterUnits="userSpaceOnUse" x="239.438" y="73.239" width="325.578" height="207.715">
					<feFlood  style="flood-color:white;flood-opacity:1" result="back"/>
					<feBlend  in="SourceGraphic" in2="back" mode="normal"/>
				</filter>
			</defs>
			<mask maskUnits="userSpaceOnUse" x="239.438" y="73.239" width="325.578" height="207.715" id="SVGID_2_">
				<g style="filter:url(#Adobe_OpacityMaskFilter_2_);">
				</g>
			</mask>

				<rect x="245.429" y="79.231" style="mask:url(#SVGID_2_);fill:none;stroke:#72bf44;stroke-width:11.9832;stroke-miterlimit:10;" width="313.595" height="195.732"/>
			<path style="fill:none;stroke:#72bf44;stroke-width:9.8184;stroke-linecap:round;stroke-miterlimit:10;" d="M472.064,41.285"/>
			<path style="fill:none;stroke:#72bf44;stroke-width:9.8184;stroke-linecap:round;stroke-miterlimit:10;" d="M292.389,41.285"/>
		</g>
		<defs>
			<filter id="Adobe_OpacityMaskFilter_3_" filterUnits="userSpaceOnUse" x="215.284" y="280.963" width="383.885" height="20">
				<feFlood  style="flood-color:white;flood-opacity:1" result="back"/>
				<feBlend  in="SourceGraphic" in2="back" mode="normal"/>
			</filter>
		</defs>
		<mask maskUnits="userSpaceOnUse" x="215.284" y="280.963" width="383.885" height="20" id="SVGID_3_">
			<g style="filter:url(#Adobe_OpacityMaskFilter_3_);">

					<line style="fill:none;stroke:#72bf44;stroke-width:0.9818;stroke-miterlimit:10;" x1="402.924" y1="324.982" x2="490.308" y2="324.982"/>
			</g>
		</mask>
		<path style="mask:url(#SVGID_3_);fill:none;stroke:#72bf44;stroke-width:20;stroke-linecap:round;stroke-miterlimit:10;" d="
			M225.284,290.963h363.885"/>
	</g>
	<defs>
		<filter id="Adobe_OpacityMaskFilter_4_" filterUnits="userSpaceOnUse" x="104.583" y="7.102" width="209.449" height="293.898">
			<feFlood  style="flood-color:white;flood-opacity:1" result="back"/>
			<feBlend  in="SourceGraphic" in2="back" mode="normal"/>
		</filter>
	</defs>
	<mask maskUnits="userSpaceOnUse" x="104.583" y="7.102" width="209.449" height="293.898" id="SVGID_4_">
		<g style="filter:url(#Adobe_OpacityMaskFilter_4_);">
			<path d="M177.667,300H13c-6.6,0-12-5.4-12-12V54.285c0-6.6,5.4-12,12-12h164.667c6.6,0,12,5.4,12,12V288
				C189.667,294.6,184.267,300,177.667,300z"/>
		</g>
	</mask>
	<g style="mask:url(#SVGID_4_);">
		<defs>
			<filter id="Adobe_OpacityMaskFilter_5_" filterUnits="userSpaceOnUse" x="104.583" y="7.102" width="209.449" height="293.898">
				<feFlood  style="flood-color:white;flood-opacity:1" result="back"/>
				<feBlend  in="SourceGraphic" in2="back" mode="normal"/>
			</filter>
		</defs>
		<mask maskUnits="userSpaceOnUse" x="104.583" y="7.102" width="209.449" height="293.898" id="SVGID_4_">
			<g style="filter:url(#Adobe_OpacityMaskFilter_5_);">

					<line style="fill:none;stroke:#72bf44;stroke-width:0.9818;stroke-miterlimit:10;" x1="161.006" y1="42.121" x2="248.39" y2="42.121"/>
			</g>
		</mask>
		<path style="fill:none;stroke:#72bf44;stroke-width:18;stroke-miterlimit:10;" d="M293.25,292H125.365
			c-6.48,0-11.782-5.302-11.782-11.782V27.884c0-6.48,5.302-11.782,11.782-11.782H293.25c6.48,0,11.782,5.302,11.782,11.782v252.333
			C305.032,286.698,299.73,292,293.25,292z"/>
		<defs>
			<filter id="Adobe_OpacityMaskFilter_6_" filterUnits="userSpaceOnUse" x="111.519" y="57.239" width="195.578" height="188.715">
				<feFlood  style="flood-color:white;flood-opacity:1" result="back"/>
				<feBlend  in="SourceGraphic" in2="back" mode="normal"/>
			</filter>
		</defs>
		<mask maskUnits="userSpaceOnUse" x="111.519" y="57.239" width="195.578" height="188.715" id="SVGID_5_">
			<g style="filter:url(#Adobe_OpacityMaskFilter_6_);">
			</g>
		</mask>

			<rect x="117.51" y="63.231" style="mask:url(#SVGID_5_);fill:none;stroke:#72bf44;stroke-width:11.9832;stroke-miterlimit:10;" width="183.595" height="176.732"/>
		<circle cx="209.308" cy="263.527" r="12.437" style="fill:#72bf44;"/>

			<line style="fill:none;stroke:#72bf44;stroke-width:9.8184;stroke-linecap:round;stroke-miterlimit:10;" x1="164.47" y1="42.285" x2="254.145" y2="42.285"/>
	</g>
	<g>
		<defs>
			<filter id="Adobe_OpacityMaskFilter_7_" filterUnits="userSpaceOnUse" x="2" y="52" width="177.765" height="248.238">
				<feFlood  style="flood-color:white;flood-opacity:1" result="back"/>
				<feBlend  in="SourceGraphic" in2="back" mode="normal"/>
			</filter>
		</defs>
		<mask maskUnits="userSpaceOnUse" x="2" y="52" width="177.765" height="248.238" id="SVGID_6_">
			<g style="filter:url(#Adobe_OpacityMaskFilter_7_);">

					<line style="fill:none;stroke:#72bf44;stroke-width:0.8194;stroke-miterlimit:10;" x1="50.574" y1="82.713" x2="123.497" y2="82.713"/>
			</g>
		</mask>
		<path style="mask:url(#SVGID_6_);fill:none;stroke:#72bf44;stroke-width:18;stroke-miterlimit:10;" d="M160.933,291.238H20.832
			c-5.408,0-9.832-4.424-9.832-9.832V70.832C11,65.424,15.424,61,20.832,61h140.101c5.408,0,9.832,4.424,9.832,9.832v210.573
			C170.765,286.813,166.341,291.238,160.933,291.238z"/>
		<defs>
			<filter id="Adobe_OpacityMaskFilter_8_" filterUnits="userSpaceOnUse" x="9.277" y="95.329" width="163.21" height="157.483">
				<feFlood  style="flood-color:white;flood-opacity:1" result="back"/>
				<feBlend  in="SourceGraphic" in2="back" mode="normal"/>
			</filter>
		</defs>
		<mask maskUnits="userSpaceOnUse" x="9.277" y="95.329" width="163.21" height="157.483" id="SVGID_7_">
			<g style="filter:url(#Adobe_OpacityMaskFilter_8_);">
			</g>
		</mask>

			<rect x="14.277" y="100.329" style="mask:url(#SVGID_7_);fill:none;stroke:#72bf44;stroke-width:10;stroke-miterlimit:10;" width="153.21" height="147.483"/>
		<circle cx="90.883" cy="267.476" r="10.378" style="fill:#72bf44;"/>

			<line style="fill:none;stroke:#72bf44;stroke-width:8.1935;stroke-linecap:round;stroke-miterlimit:10;" x1="53.466" y1="82.849" x2="128.3" y2="82.849"/>
	</g>
</g>
</svg>
